<?xml version="1.0" encoding="UTF-8"?>
<svg xmlns="http://www.w3.org/2000/svg" xmlns:xlink="http://www.w3.org/1999/xlink" width="667px" height="667px" viewBox="0 0 375 375" version="1.1">
<g id="surface1">
<path style=" stroke:none;fill-rule:nonzero;fill:rgb(0%,0%,0%);fill-opacity:1;" d="M 171 47.324219 C 146.101562 50.175781 119.699219 60.824219 98.851562 76.574219 C 86.398438 85.949219 71.625 102.523438 62.773438 116.925781 L 60 121.5 L 31.5 121.5 L 29.101562 123.675781 L 26.625 125.851562 L 26.773438 184.648438 C 26.851562 216.976562 26.925781 243.824219 26.925781 244.351562 C 27 244.949219 27.976562 246.375 29.175781 247.574219 L 31.351562 249.75 L 53.851562 249.75 L 57.449219 257.023438 C 65.476562 273.300781 79.5 291.226562 93.074219 302.625 C 143.25 344.699219 213.601562 348.898438 268.125 312.976562 C 287.023438 300.523438 303.976562 282 315.300781 261.601562 L 318.074219 256.574219 L 328.726562 256.351562 L 339.375 256.125 L 339.824219 244.5 C 340.125 238.125 340.351562 232.273438 340.425781 231.523438 C 340.5 230.550781 341.175781 230.25 343.726562 230.25 C 345.523438 230.25 347.324219 229.875 347.851562 229.351562 C 348.449219 228.75 348.75 225.375 348.75 219 C 348.75 212.625 348.449219 209.25 347.851562 208.648438 C 347.25 208.050781 344.398438 207.75 340.199219 207.75 L 333.375 207.75 L 337.726562 205.949219 C 346.273438 202.425781 351.074219 197.925781 355.351562 189.375 C 356.625 186.824219 357.976562 182.851562 358.425781 180.375 C 359.476562 174.824219 359.476562 151.125 358.5 144.824219 C 356.925781 135.523438 350.625 127.125 342.148438 123.148438 C 338.175781 121.273438 337.050781 121.125 326.101562 120.898438 L 314.398438 120.601562 L 311.550781 116.023438 C 285.226562 72.75 237 46.050781 186.226562 46.574219 C 180.976562 46.648438 174.074219 46.949219 171 47.324219 Z M 200.851562 141.824219 L 201 158.023438 L 193.726562 158.476562 C 189.675781 158.773438 182.101562 159 176.925781 159 C 168.449219 159 167.25 159.148438 165.449219 160.574219 C 162.148438 163.125 163.199219 167.324219 167.625 169.199219 C 169.574219 169.949219 174 170.25 185.625 170.25 L 201 170.25 L 201 204 L 181.875 204 C 156.976562 204 149.476562 202.574219 141.976562 196.199219 L 139.648438 194.25 L 141.148438 188.851562 C 142.273438 184.574219 142.648438 180.675781 142.726562 171 C 142.875 160.125 142.648438 157.875 141.148438 152.25 C 140.175781 148.726562 138.449219 144.074219 137.25 141.898438 L 135.074219 137.851562 L 138.601562 134.101562 C 145.875 126.375 150.675781 125.324219 179.625 125.476562 L 200.625 125.625 Z M 278.101562 140.773438 L 277.875 156.375 L 271.351562 156.75 C 267.449219 156.976562 264.449219 157.5 263.851562 158.101562 C 263.101562 158.851562 262.800781 164.550781 262.5 181.351562 L 262.125 203.625 L 225.375 203.625 L 225.375 182.101562 C 225.375 156.074219 225.976562 157.574219 215.476562 156.824219 L 208.875 156.375 L 208.425781 148.875 C 207.75 138.375 207.675781 126.375 208.273438 125.773438 C 208.5 125.476562 224.398438 125.25 243.523438 125.25 L 278.25 125.25 Z M 338.25 126.523438 C 343.726562 128.324219 349.425781 133.648438 352.199219 139.648438 C 354.300781 144.300781 354.375 144.601562 354.601562 159.675781 C 354.824219 169.5 354.601562 176.699219 354 179.550781 C 352.125 189.074219 345.523438 197.550781 336.898438 201.601562 C 332.699219 203.550781 332.25 203.625 318.375 203.625 C 304.199219 203.625 304.125 203.625 299.699219 201.449219 C 294.074219 198.675781 290.324219 194.925781 287.550781 189.300781 L 285.375 184.875 L 285.148438 165.75 C 285 153.449219 285.226562 145.273438 285.75 142.726562 C 287.398438 135.226562 293.398438 128.851562 301.125 126.523438 C 306.824219 124.800781 332.851562 124.800781 338.25 126.523438 Z M 93 128.699219 C 93 128.925781 87.074219 137.398438 79.800781 147.523438 C 72.523438 157.726562 66.449219 166.351562 66.300781 166.875 C 66.074219 167.398438 68.398438 168.601562 72.523438 169.949219 L 79.125 172.125 L 79.050781 175.5 C 78.976562 178.351562 77.25 181.949219 68.324219 198.300781 C 62.550781 209.023438 57.824219 217.800781 57.898438 217.875 C 58.199219 218.101562 113.550781 168.675781 113.851562 168 C 114 167.699219 110.851562 166.351562 106.875 165 C 102.976562 163.574219 99.824219 162.226562 99.898438 161.925781 C 100.050781 161.550781 106.199219 156.148438 113.550781 149.925781 L 127.050781 138.601562 L 128.476562 140.324219 C 130.949219 143.25 134.023438 150.75 135.375 157.125 C 136.949219 164.25 136.574219 180 134.625 187.648438 C 130.726562 202.800781 118.425781 214.5 102.601562 218.25 C 99 219.074219 92.851562 220.125 88.800781 220.5 C 83.851562 220.949219 81.148438 221.550781 80.324219 222.375 C 79.425781 223.273438 79.050781 225.449219 78.898438 231.601562 C 78.824219 236.023438 78.523438 240.375 78.300781 241.351562 L 78 243 L 55.800781 242.851562 L 33.523438 242.625 L 33.375 185.398438 L 33.226562 128.25 L 63.148438 128.25 C 79.574219 128.25 93 128.476562 93 128.699219 Z M 167.851562 211.800781 C 173.851562 214.949219 175.5 219.226562 175.5 231.675781 C 175.5 240.75 175.351562 241.574219 173.398438 245.324219 C 171.824219 248.476562 170.398438 249.898438 167.25 251.773438 C 163.425781 254.101562 162.824219 254.25 155.851562 254.25 C 147.75 254.25 144.300781 253.273438 140.851562 249.976562 C 137.25 246.523438 136.273438 242.023438 136.648438 230.023438 C 136.949219 217.800781 137.699219 215.699219 142.875 212.550781 C 145.648438 210.898438 146.625 210.75 155.851562 210.75 C 162.976562 210.75 166.425781 211.050781 167.851562 211.800781 Z M 218.101562 228.148438 C 217.875 244.050781 217.726562 245.851562 216.375 248.175781 C 213.75 252.601562 210.300781 253.875 199.273438 254.101562 C 190.199219 254.324219 189.375 254.25 185.773438 252.449219 C 180.300781 249.824219 179.25 247.726562 179.25 239.324219 L 179.25 232.5 L 195.75 232.5 L 195.75 235.425781 C 195.75 239.324219 196.351562 240.75 198 240.75 C 199.949219 240.75 200.25 238.726562 200.25 224.023438 L 200.25 210.75 L 218.324219 210.75 Z M 260.550781 217.199219 L 260.398438 223.648438 L 251.25 223.800781 C 243.824219 224.023438 241.949219 224.25 240.898438 225.300781 C 239.699219 226.5 239.699219 226.648438 241.050781 227.699219 C 242.175781 228.449219 244.875 228.75 251.773438 228.75 L 261 228.75 L 261 237.75 L 251.699219 237.75 C 244.351562 237.75 242.25 237.976562 241.5 238.875 C 240.75 239.773438 240.75 240.226562 241.5 241.125 C 242.25 242.023438 244.351562 242.25 251.699219 242.25 L 261 242.25 L 261 254.25 L 221.925781 254.25 L 222.148438 232.5 L 222.375 210.75 L 260.699219 210.75 Z M 303.75 219.675781 L 303.75 228.601562 L 294.976562 229.125 C 283.726562 229.726562 284.175781 229.648438 283.199219 231.226562 C 282.523438 232.351562 282.675781 232.875 284.175781 234.074219 C 285.675781 235.273438 287.101562 235.5 294.824219 235.5 L 303.75 235.5 L 303.75 254.25 L 292.648438 254.25 C 279.824219 254.25 275.25 253.351562 270.898438 249.898438 C 265.949219 245.925781 264.75 242.550781 264.75 232.425781 C 264.75 222.300781 265.425781 219.449219 268.726562 215.699219 C 272.398438 211.425781 275.175781 210.824219 290.476562 210.75 L 303.75 210.75 Z M 346.5 219.375 L 346.5 228 L 342.75 228 C 339.898438 228 338.851562 228.300781 338.25 229.425781 C 337.800781 230.25 337.5 235.949219 337.5 242.625 L 337.5 254.324219 L 327.226562 254.101562 L 316.875 253.875 L 317.175781 242.398438 C 317.476562 228.75 317.101562 228 311.101562 228 L 307.5 228 L 307.5 210.75 L 346.5 210.75 Z M 130.875 215.476562 C 132.523438 218.324219 132.75 219.601562 132.75 225.523438 C 132.75 231.300781 132.449219 232.800781 130.800781 235.875 L 128.925781 239.550781 L 130.800781 245.398438 C 133.875 254.625 134.175781 254.25 124.648438 254.25 L 116.476562 254.25 L 115.5 251.023438 C 114.226562 246.601562 112.574219 243.601562 111.75 244.125 C 111.300781 244.425781 111 246.75 111 249.449219 L 111 254.25 L 93.75 254.25 L 93.75 226.648438 L 97.648438 226.125 C 99.824219 225.824219 103.726562 225 106.273438 224.25 L 111 222.976562 L 111 227.398438 C 111 231.226562 111.148438 231.824219 112.351562 231.601562 C 113.398438 231.375 113.699219 230.398438 113.851562 226.5 L 114.148438 221.625 L 120.976562 216.976562 C 124.800781 214.5 128.101562 212.398438 128.398438 212.324219 C 128.699219 212.25 129.824219 213.75 130.875 215.476562 Z M 130.875 215.476562 "/>
<path style=" stroke:none;fill-rule:nonzero;fill:rgb(0%,0%,0%);fill-opacity:1;" d="M 316.648438 149.699219 C 315.074219 150.824219 315 151.273438 315 163.800781 C 315 175.351562 315.148438 177 316.351562 178.5 C 317.398438 179.851562 318.226562 180.074219 319.726562 179.699219 C 322.648438 179.023438 323.398438 175.050781 323.101562 161.773438 C 322.875 151.800781 322.726562 150.523438 321.449219 149.550781 C 319.574219 148.199219 318.75 148.199219 316.648438 149.699219 Z M 316.648438 149.699219 "/>
<path style=" stroke:none;fill-rule:nonzero;fill:rgb(0%,0%,0%);fill-opacity:1;" d="M 153.824219 224.925781 C 152.925781 226.574219 152.851562 235.5 153.675781 238.5 C 153.976562 239.699219 154.726562 240.375 155.625 240.375 C 156.898438 240.375 157.199219 239.625 157.726562 234.824219 C 158.101562 231.75 158.023438 228 157.726562 226.574219 C 156.976562 223.5 155.023438 222.675781 153.824219 224.925781 Z M 153.824219 224.925781 "/>
</g>
</svg>
