<?xml version="1.0" encoding="UTF-8"?>
<svg xmlns="http://www.w3.org/2000/svg" xmlns:xlink="http://www.w3.org/1999/xlink" width="667px" height="667px" viewBox="0 0 375 375" version="1.1">
<g id="surface1">
<path style=" stroke:none;fill-rule:nonzero;fill:rgb(0%,0%,0%);fill-opacity:1;" d="M 170.25 47.324219 C 144.824219 50.175781 117.148438 61.875 96.449219 78.449219 C 82.574219 89.550781 69.375 105.074219 60.824219 120.148438 L 58.425781 124.5 L 67.875 124.5 L 71.101562 119.324219 C 78.148438 107.851562 89.925781 94.5 100.875 85.5 C 124.875 65.851562 156.148438 54.75 187.5 54.75 C 214.050781 54.75 240 62.476562 262.5 77.101562 C 277.351562 86.699219 292.875 102.074219 301.875 116.101562 L 304.875 120.75 L 314.324219 120.75 L 312.375 117.148438 C 309.226562 111.375 299.324219 98.398438 292.5 91.199219 C 269.699219 67.199219 237.148438 51.148438 203.625 47.25 C 195.75 46.351562 178.351562 46.425781 170.25 47.324219 Z M 170.25 47.324219 "/>
<path style=" stroke:none;fill-rule:nonzero;fill:rgb(0%,0%,0%);fill-opacity:1;" d="M 154.125 129.449219 C 146.175781 130.425781 138.074219 133.273438 135.824219 136.050781 C 135 137.023438 135.226562 137.773438 137.023438 140.773438 C 140.175781 145.949219 141.601562 149.925781 142.875 157.351562 C 145.050781 169.351562 143.023438 186.523438 138.449219 195.675781 L 136.648438 199.199219 L 139.050781 200.851562 C 145.351562 205.125 147.601562 205.800781 159.75 206.476562 C 166.125 206.851562 177 207.300781 183.976562 207.449219 L 196.5 207.824219 L 196.5 174 L 181.125 174 C 169.5 174 165.074219 173.699219 163.125 172.949219 C 158.773438 171.074219 157.648438 166.875 160.875 164.398438 C 162.523438 163.050781 164.476562 162.824219 179.625 162.375 L 196.5 161.851562 L 196.351562 145.574219 L 196.125 129.375 L 176.25 129.300781 C 165.300781 129.226562 155.398438 129.300781 154.125 129.449219 Z M 154.125 129.449219 "/>
<path style=" stroke:none;fill-rule:nonzero;fill:rgb(0%,0%,0%);fill-opacity:1;" d="M 204.148438 144.523438 L 204.375 160.125 L 210.976562 160.5 C 217.199219 160.875 217.726562 161.023438 219.523438 163.125 L 221.476562 165.375 L 221.023438 185.773438 C 220.726562 200.851562 220.875 206.175781 221.476562 206.398438 C 222 206.550781 230.398438 206.550781 240.226562 206.398438 L 258 206.175781 L 258 184.648438 C 258 172.425781 258.300781 162.675781 258.75 162 C 259.273438 161.175781 261.375 160.800781 266.398438 160.5 L 273.375 160.125 L 273.601562 144.523438 L 273.75 129 L 204 129 Z M 204.148438 144.523438 "/>
<path style=" stroke:none;fill-rule:nonzero;fill:rgb(0%,0%,0%);fill-opacity:1;" d="M 297.523438 130.050781 C 290.550781 132 283.800781 138.375 281.851562 144.976562 C 281.175781 147.226562 280.875 154.050781 280.875 168 L 280.875 187.875 L 283.273438 192.824219 C 285.898438 198.226562 289.800781 202.199219 294.824219 204.75 C 297.675781 206.25 299.023438 206.324219 314.476562 206.324219 L 330.976562 206.25 L 334.875 204 C 340.125 201 344.625 195.976562 347.476562 189.898438 L 349.875 184.875 L 349.875 148.125 L 347.773438 143.550781 C 345.226562 138 340.726562 133.425781 335.625 131.101562 C 332.175781 129.523438 330.75 129.375 316.5 129.226562 C 305.476562 129.074219 300.074219 129.300781 297.523438 130.050781 Z M 317.550781 153.898438 C 318.523438 155.25 318.75 157.949219 318.75 168 C 318.75 181.574219 318.148438 183.75 314.625 183.75 C 311.023438 183.75 310.5 181.574219 310.5 167.476562 C 310.5 155.023438 310.574219 154.574219 312.148438 153.449219 C 314.476562 151.800781 316.199219 151.949219 317.550781 153.898438 Z M 317.550781 153.898438 "/>
<path style=" stroke:none;fill-rule:nonzero;fill:rgb(0%,0%,0%);fill-opacity:1;" d="M 42.375 183.523438 L 42.523438 236.625 L 83.625 236.625 L 84 228.375 C 84.601562 216.523438 84.449219 216.675781 96.375 215.550781 C 117.300781 213.675781 130.949219 203.398438 136.199219 185.550781 C 137.175781 182.25 137.550781 178.273438 137.550781 169.5 C 137.625 159.226562 137.398438 157.273438 135.898438 152.625 C 134.101562 147.226562 131.324219 141.898438 129.601562 140.398438 C 128.773438 139.800781 125.773438 141.976562 115.875 150.375 C 108.898438 156.375 103.050781 161.476562 102.976562 161.773438 C 102.824219 162.148438 106.199219 163.648438 110.324219 165.074219 L 117.976562 167.773438 L 88.800781 194.023438 C 72.75 208.5 59.550781 220.273438 59.398438 220.125 C 59.25 220.050781 64.800781 209.550781 71.625 196.875 C 78.449219 184.199219 84 173.699219 84 173.550781 C 84 173.476562 80.324219 172.125 75.75 170.625 C 71.25 169.125 67.5 167.773438 67.5 167.625 C 67.5 167.476562 73.425781 159.074219 80.625 148.949219 L 93.675781 130.5 L 42.226562 130.5 Z M 42.375 183.523438 "/>
<path style=" stroke:none;fill-rule:nonzero;fill:rgb(0%,0%,0%);fill-opacity:1;" d="M 124.875 211.648438 C 118.800781 216.226562 113.175781 218.476562 101.851562 220.875 L 99.75 221.25 L 99.75 252 L 116.25 252 L 116.25 247.199219 C 116.25 244.5 116.550781 242.175781 117 241.875 C 117.824219 241.351562 119.476562 244.351562 120.75 248.773438 L 121.726562 252 L 129.523438 252 C 138.601562 252 138.375 252.300781 135.375 243.375 L 133.5 237.824219 L 135.449219 234.074219 C 137.101562 230.925781 137.398438 229.351562 137.398438 224.023438 C 137.398438 216.976562 136.425781 214.351562 132.75 211.199219 C 129.75 208.726562 128.625 208.800781 124.875 211.648438 Z M 119.101562 223.425781 C 119.398438 227.699219 118.726562 230.25 117.375 230.25 C 116.476562 230.25 116.25 229.125 116.25 224.925781 C 116.25 220.273438 116.398438 219.675781 117.601562 219.898438 C 118.5 220.050781 118.949219 221.023438 119.101562 223.425781 Z M 119.101562 223.425781 "/>
<path style=" stroke:none;fill-rule:nonzero;fill:rgb(0%,0%,0%);fill-opacity:1;" d="M 149.699219 210 C 147.074219 210.824219 144.300781 213.375 142.648438 216.375 C 141.074219 219.375 140.476562 234.898438 141.675781 240.449219 C 143.550781 248.625 148.648438 252 159.375 252 C 167.101562 252 170.625 250.726562 174.523438 246.75 C 178.125 243 178.875 240.148438 178.875 229.125 C 178.875 220.125 178.726562 219.148438 177 216 C 174 210.675781 170.398438 209.25 160.125 209.324219 C 155.625 209.324219 150.898438 209.699219 149.699219 210 Z M 161.550781 223.199219 C 161.773438 223.875 162 227.324219 162 231 C 162 235.949219 161.699219 237.824219 160.875 238.5 C 159.976562 239.25 159.523438 239.25 158.625 238.5 C 157.800781 237.75 157.5 235.875 157.5 230.25 C 157.5 226.273438 157.726562 222.75 158.023438 222.523438 C 158.925781 221.550781 161.101562 222 161.550781 223.199219 Z M 161.550781 223.199219 "/>
<path style=" stroke:none;fill-rule:nonzero;fill:rgb(0%,0%,0%);fill-opacity:1;" d="M 203.25 223.425781 C 203.25 235.5 203.101562 237.675781 202.050781 238.574219 C 201 239.398438 200.699219 239.324219 199.800781 238.125 C 199.199219 237.375 198.75 235.425781 198.75 233.851562 L 198.75 230.925781 L 190.726562 231.148438 L 182.625 231.375 L 182.925781 237.75 C 183.226562 245.175781 184.199219 247.5 188.023438 249.898438 C 190.648438 251.476562 191.625 251.625 201.375 251.625 C 212.925781 251.625 215.25 250.949219 218.550781 246.523438 C 220.050781 244.5 220.125 243.300781 220.351562 226.800781 L 220.574219 209.25 L 203.25 209.25 Z M 203.25 223.425781 "/>
<path style=" stroke:none;fill-rule:nonzero;fill:rgb(0%,0%,0%);fill-opacity:1;" d="M 224.851562 230.023438 C 224.699219 241.5 224.699219 251.101562 224.851562 251.398438 C 225 251.773438 233.550781 252 243.824219 252 L 262.574219 252 L 262.351562 246.148438 L 262.125 240.375 L 253.199219 240.375 C 245.625 240.375 244.199219 240.148438 243.449219 239.101562 C 241.875 236.550781 243.976562 235.875 253.351562 235.875 L 262.125 235.875 L 262.351562 231.523438 L 262.574219 227.25 L 253.648438 227.25 C 244.425781 227.25 241.574219 226.425781 242.476562 224.101562 C 243 222.523438 246.375 222 254.925781 222 L 262.125 222 L 262.199219 215.625 L 262.351562 209.25 L 225.148438 209.25 Z M 224.851562 230.023438 "/>
<path style=" stroke:none;fill-rule:nonzero;fill:rgb(0%,0%,0%);fill-opacity:1;" d="M 277.273438 210.300781 C 273 211.5 268.949219 215.101562 267.601562 218.925781 C 267 220.5 266.625 225.375 266.625 230.625 C 266.625 238.574219 266.851562 240 268.351562 242.851562 C 270.375 246.75 275.324219 250.050781 280.574219 251.175781 C 282.675781 251.625 288.898438 252 294.375 252 L 304.5 252 L 304.5 234 L 296.476562 234 C 287.851562 234 284.851562 233.175781 284.398438 230.625 C 283.875 228 286.199219 227.25 295.648438 227.25 L 304.574219 227.25 L 304.351562 218.398438 L 304.125 209.625 L 292.5 209.476562 C 284.851562 209.398438 279.675781 209.699219 277.273438 210.300781 Z M 277.273438 210.300781 "/>
<path style=" stroke:none;fill-rule:nonzero;fill:rgb(0%,0%,0%);fill-opacity:1;" d="M 308.398438 217.648438 L 308.625 226.125 L 312.601562 226.5 C 314.851562 226.726562 316.875 227.398438 317.324219 228 C 317.773438 228.675781 318 233.699219 317.851562 240.375 L 317.625 251.625 L 327.601562 251.851562 L 337.5 252.074219 L 337.5 240.449219 C 337.5 234.074219 337.726562 228.375 337.949219 227.699219 C 338.25 226.800781 339.449219 226.5 342.074219 226.5 C 346.5 226.5 346.648438 226.125 346.351562 216.375 L 346.125 209.625 L 327.148438 209.398438 L 308.175781 209.25 Z M 308.398438 217.648438 "/>
<path style=" stroke:none;fill-rule:nonzero;fill:rgb(0%,0%,0%);fill-opacity:1;" d="M 53.550781 248.851562 C 64.875 275.324219 83.023438 297.074219 106.800781 312.824219 C 156.375 345.675781 218.625 345.675781 268.199219 312.824219 C 286.273438 300.824219 300.898438 285.601562 312.148438 267 C 317.699219 257.851562 318.976562 255 317.625 255 C 315.675781 255 314.101562 251.550781 314.324219 247.949219 C 314.476562 246.148438 314.550781 244.726562 314.398438 244.800781 C 314.324219 244.949219 312.75 248.023438 310.949219 251.699219 C 300.074219 274.125 282.898438 293.699219 262.5 306.898438 C 246.300781 317.476562 227.175781 324.75 207.375 327.824219 C 199.574219 329.023438 175.351562 329.023438 167.625 327.824219 C 127.199219 321.375 93.375 299.398438 71.625 265.5 C 69.601562 262.425781 66.148438 256.050781 63.898438 251.398438 L 59.851562 243 L 51.074219 243 Z M 53.550781 248.851562 "/>
</g>
</svg>
